<?xml version="1.0" encoding="UTF-8" standalone="no"?><svg xmlns:android="http://schemas.android.com/apk/res/android" height="24.046947" width="24" xmlns="http://www.w3.org/2000/svg">
  <path d="m22.6405,22.6325c-3.2579,0.3613 -5.8416,-1.0813 -5.8674,-1.0959 -0.0879,-0.0499 -0.1916,-0.0636 -0.2891,-0.0366 -0.0411,0.0104 -4.1394,1.1094 -7.44,0.3769 -2.0576,-0.4574 -3.9986,-1.907 -5.4158,-2.9652 -0.1904,-0.1423 -0.3707,-0.2768 -0.54,-0.4008 -0.2313,-0.1691 -0.599,-0.3099 -0.9233,-0.434 -0.1456,-0.0556 -0.3451,-0.1319 -0.3878,-0.1588 -0.0372,-0.029 -0.0574,-0.0719 -0.0574,-0.1206v-0.8835c0.0183,-0.6991 2.9494,-11.4558 3.4039,-12.8243 0.0112,-0.0162 0.0549,-0.0478 0.0871,-0.0631l5.8005,-2.649 1.8752,2.4413c0.0925,0.1266 0.0837,0.3033 -0.0205,0.42L11.0131,6.3162c-0.1213,0.1362 -0.3254,0.1509 -0.4521,0.0452l-0.7492,-0.6907c-0.0876,-0.0809 -0.2125,-0.1077 -0.3298,-0.0862 -0.1173,0.021 -0.2224,0.1047 -0.2765,0.211 -0.0628,0.1232 -0.6299,0.2745 -1.2088,0.2788l-0.1886,-0.019c-0.1502,-0.018 -0.2976,0.0608 -0.3716,0.1941 -0.074,0.133 -0.0615,0.2975 0.0316,0.4182 0.1609,0.208 0.2863,0.3751 0.3574,0.471l0.3709,6.3044c-0.2299,0.8954 -0.4406,1.1498 -0.4928,1.2006 -0.1545,0.0489 -0.2665,0.1931 -0.2665,0.3636 0,0.2105 0.1707,0.3812 0.3812,0.3812 0.4322,0 0.7997,-0.568 1.0945,-1.677 3.0315,-2.2683 5.6773,-0.1277 5.8848,0.0486 0.9627,0.9663 1.0225,1.6083 1.0244,1.6368 0.0032,0.2066 0.1735,0.3728 0.3812,0.3728 0.2105,0 0.3812,-0.1707 0.3812,-0.3812 0,-0.0877 -0.0316,-0.8397 -1.0182,-1.9262 0.9302,-1.1439 1.9897,-1.8026 3.1562,-1.9461 2.0109,-0.2477 3.7027,1.1048 3.7194,1.1183 0.1632,0.133 0.4031,0.1087 0.5361,-0.0547 0.1328,-0.1629 0.1089,-0.4025 -0.0539,-0.5357 -0.0786,-0.0641 -1.95,-1.5699 -4.2868,-1.2856 -1.3658,0.1657 -2.5919,0.9044 -3.6489,2.1971 -0.8575,-0.5833 -3.3169,-1.9035 -6.0675,-0.1769L8.5795,6.9808c-0.0033,-0.0625 -0.0226,-0.1233 -0.0553,-0.1767 0.341,-0.0403 0.7473,-0.1294 1.0419,-0.3232l0.4912,0.4525c0.4567,0.3837 1.1268,0.336 1.5242,-0.1096L13.4347,4.7465c0.3417,-0.383 0.3703,-0.9619 0.0619,-1.3843L11.4309,0.6727c-0.1077,-0.1405 -0.2985,-0.1881 -0.4607,-0.1145l-6.0715,2.7732c-0.0635,0.0279 -0.3855,0.1837 -0.4914,0.5022 -0.2158,0.6479 -3.4497,12.1808 -3.4497,13.0792v0.8849c0,0.284 0.1275,0.5466 0.3495,0.7204 0.1111,0.0872 0.277,0.1529 0.5857,0.2708 0.2518,0.0966 0.5965,0.2284 0.7455,0.3373 0.1675,0.1224 0.3458,0.2557 0.5339,0.3961 1.4725,1.0998 3.489,2.6057 5.7068,3.0986 3.1567,0.7016 6.8627,-0.1467 7.6567,-0.3467 0.5305,0.274 2.4767,1.1798 5.0243,1.1798 0.376,0 0.7652,-0.0197 1.1647,-0.0641 0.2093,-0.0232 0.3598,-0.2116 0.3367,-0.4208 -0.0234,-0.2095 -0.2125,-0.3615 -0.421,-0.3366zM22.6405,22.6325" fill="#000000" fill-opacity="1.0" stroke-width="0.04551525"/>
  <path d="m448.8945,-96.4683c-0.4609,-4.1914 -4.0117,-7.4531 -8.3242,-7.4531 -4.625,0 -8.375,3.75 -8.375,8.375 0,5.5938 4.1289,24.5313 57.2383,33.3828 0.4649,0.0742 0.9336,0.1133 1.3867,0.1133 4.0195,0 7.5664,-2.9023 8.25,-6.9961 0.7578,-4.5625 -2.3242,-8.875 -6.8828,-9.6367 -37.1406,-6.1914 -42.7969,-16.6719 -43.293,-17.7852zM448.8945,-96.4683" fill="#000000" fill-opacity="1.0"/>
  <path d="m356.4375,-387.2379h25.5156v23.7266c0,4.625 3.75,8.375 8.375,8.375h66.9883c4.625,0 8.375,-3.75 8.375,-8.375v-23.7266h25.125c3.207,0 6.1367,-1.832 7.5352,-4.7227 1.3984,-2.8906 1.0273,-6.3242 -0.9609,-8.8438l-67.1914,-85.1289c-3.1797,-4.0273 -9.9688,-4.0273 -13.1484,0l-67.1875,85.1328c-1.9883,2.5156 -2.3594,5.9531 -0.9609,8.8398 1.3984,2.8906 4.3242,4.7227 7.5352,4.7227zM423.625,-467.2261 L473.5391,-403.9879h-16.2227c-4.625,0 -8.375,3.75 -8.375,8.375v23.7305h-50.2422v-23.7305c0,-4.625 -3.75,-8.375 -8.375,-8.375h-16.6133zM423.625,-467.2261" fill="#000000" fill-opacity="1.0"/>
  <path d="m465.6914,-338.3902c0,-4.6211 -3.75,-8.3711 -8.375,-8.3711h-66.9922c-4.625,0 -8.375,3.75 -8.375,8.3711v25.125c0,4.625 3.75,8.375 8.375,8.375h66.9922c4.625,0 8.375,-3.75 8.375,-8.375zM448.9414,-321.6402h-50.2422v-8.375h50.2422zM448.9414,-321.6402" fill="#000000" fill-opacity="1.0"/>
  <path d="m457.3164,-296.5191h-66.9883c-4.625,0 -8.375,3.75 -8.375,8.375 0,4.625 3.75,8.375 8.375,8.375h66.9883c4.625,0 8.375,-3.75 8.375,-8.375 0,-4.625 -3.75,-8.375 -8.375,-8.375zM457.3164,-296.5191" fill="#000000" fill-opacity="1.0"/>
  <path d="m288.0859,-53.4878c-109.6836,23.4883 -156.6094,-51.5547 -158.5547,-54.7539 -2.3906,-3.957 -7.5313,-5.2305 -11.4805,-2.8555 -3.9648,2.3828 -5.25,7.5273 -2.8711,11.4883 0.5547,0.9219 13.8789,22.7969 42.375,41.4297 19.6289,12.8359 49.5664,25.9102 90.0625,25.9102 13.4844,0 28.1445,-1.4492 43.9766,-4.8398 4.5195,-0.9688 7.4023,-5.4219 6.4336,-9.9453 -0.9688,-4.5195 -5.4375,-7.4141 -9.9414,-6.4336zM288.0859,-53.4878" fill="#000000" fill-opacity="1.0"/>
</svg>