<?xml version="1.0" encoding="UTF-8" standalone="no"?><svg xmlns:android="http://schemas.android.com/apk/res/android" height="14.0625" width="14.0625" xmlns="http://www.w3.org/2000/svg">
  <path d="M14.0658,4.2118C13.6131,3.0801 11.7837,2.9499 11.3381,2.9353 10.4268,2.0472 9.5953,1.7172 9.2737,1.6151l-0.1952,-0.781c-0.0305,-0.122 -0.1542,-0.1954 -0.2755,-0.1652 -0.1217,0.0304 -0.1956,0.1537 -0.1652,0.2753l0.2271,0.9085c0.0208,0.0836 0.087,0.1479 0.1711,0.1668 0.0095,0.002 0.9699,0.2251 2.0464,1.3016 0.0425,0.0426 0.1003,0.0665 0.1605,0.0665 0.5576,0.0007 2.0762,0.1803 2.4011,0.9928 0.0356,0.0889 0.1209,0.1429 0.2111,0.1429 0.0281,0 0.0566,-0.0051 0.0843,-0.0162 0.1165,-0.0467 0.1731,-0.1789 0.1266,-0.2953z" fill="#000000" fill-opacity="1.0"/>
  <path d="m3.1134,3.321c1.069,-1.0691 1.9309,-1.3011 1.9387,-1.3031 0.0813,-0.0202 0.1449,-0.0839 0.1652,-0.1652l0.2271,-0.9085c0.0304,-0.1216 -0.0436,-0.2448 -0.1652,-0.2753 -0.1213,-0.0302 -0.245,0.0433 -0.2755,0.1652l-0.1964,0.7856c-0.2977,0.106 -1.0528,0.4385 -1.9495,1.3153 -0.459,0.014 -2.3872,0.1413 -2.8414,1.2767 -0.0466,0.1165 0.0101,0.2486 0.1266,0.2952 0.0277,0.0111 0.0562,0.0162 0.0843,0.0162 0.0902,0 0.1755,-0.0539 0.2111,-0.1429 0.3251,-0.8127 1.9255,-0.9921 2.5147,-0.9928 0.0601,0.0001 0.118,-0.0239 0.1605,-0.0665z" fill="#000000" fill-opacity="1.0"/>
  <path d="m12.3315,6.861 l-0.842,0.842l-3.147,0c-0.2824,0 -0.5392,-0.1639 -0.6586,-0.4188l-0.4248,-1.4617c-0.0283,-0.0969 -0.1171,-0.1637 -0.2182,-0.1637 -0.1011,0 -0.1899,0.0668 -0.2182,0.1637l-0.4248,1.4617c-0.1194,0.2548 -0.3762,0.4188 -0.6586,0.4188L2.8197,7.703L1.9777,6.861c-0.0887,-0.0887 -0.2325,-0.0887 -0.3212,0 -0.0887,0.0887 -0.0887,0.2325 0,0.3212l0.9085,0.9085c0.0426,0.0426 0.1004,0.0665 0.1606,0.0665l3.0139,0c0.4665,0 0.8902,-0.2755 1.0796,-0.7015 0.0041,-0.0093 0.0077,-0.0191 0.0106,-0.0288l0.2113,-0.7273 0.2114,0.7273c0.0029,0.0098 0.0064,0.0195 0.0106,0.0288 0.1894,0.4261 0.6132,0.7015 1.0796,0.7015L11.5836,8.1572c0.0602,0 0.118,-0.024 0.1606,-0.0665l0.9085,-0.9085c0.0887,-0.0887 0.0887,-0.2325 0,-0.3212 -0.0887,-0.0887 -0.2325,-0.0887 -0.3212,0z" fill="#000000" fill-opacity="1.0"/>
  <path d="m3.6225,9.3647c0.02,-0.0601 0.0141,-0.1258 -0.0164,-0.1812 -0.0304,-0.0555 -0.0826,-0.0956 -0.1439,-0.1109 -0.2094,-0.0524 -0.8403,-0.2682 -0.9876,-0.5627 -0.0491,-0.0982 -0.1619,-0.1475 -0.2669,-0.1165 -0.1054,0.0308 -0.1737,0.1329 -0.1621,0.242 0.0085,0.0803 0.2156,1.9714 0.8606,3.1361L3.407,13.1928l0,0.6425c0,0.1255 0.1017,0.2271 0.2271,0.2271 0.1254,0 0.2271,-0.1016 0.2271,-0.2271l0,-0.6814c0,-0.0257 -0.0043,-0.0512 -0.0129,-0.0754l-0.5202,-1.4763c-0.0044,-0.0124 -0.0098,-0.0244 -0.0162,-0.0357 -0.3883,-0.6918 -0.6124,-1.7106 -0.7241,-2.3593 0.1967,0.1136 0.4037,0.1939 0.554,0.2438 -0.0805,0.7331 0.5099,1.5309 0.5378,1.5679 0.0751,0.1007 0.2175,0.1209 0.318,0.0455 0.1004,-0.0752 0.1207,-0.2176 0.0454,-0.3179 -0.1696,-0.2262 -0.5759,-0.9155 -0.4205,-1.3818z" fill="#000000" fill-opacity="1.0"/>
  <path d="m12.1079,8.3954c-0.1067,-0.0348 -0.2229,0.014 -0.2732,0.1145 -0.122,0.244 -0.7776,0.4744 -1.2043,0.5603 -0.0638,0.0129 -0.1191,0.0524 -0.1517,0.1087 -0.0327,0.0563 -0.0397,0.124 -0.0191,0.1858 0.1547,0.464 -0.2512,1.1549 -0.4206,1.3821 -0.075,0.1003 -0.0545,0.2426 0.0459,0.3176 0.1005,0.0754 0.2425,0.055 0.3176,-0.0455 0.0276,-0.0368 0.6112,-0.8253 0.5392,-1.5546 0.2013,-0.0519 0.4895,-0.1404 0.7487,-0.2726 -0.1446,0.6512 -0.4153,1.6775 -0.8067,2.3748 -0.0039,0.0069 -0.0074,0.0142 -0.0107,0.0215l-0.6338,1.4763c-0.0121,0.0284 -0.0184,0.0588 -0.0184,0.0896l0,0.6814c0,0.1255 0.1017,0.2271 0.2271,0.2271 0.1254,0 0.2271,-0.1016 0.2271,-0.2271l0,-0.6346l0.6107,-1.4227c0.6453,-1.1581 0.9628,-3.0496 0.9761,-3.1296 0.0183,-0.1108 -0.0473,-0.2184 -0.1541,-0.253z" fill="#000000" fill-opacity="1.0"/>
  <path d="m7.0411,10.6556c0.1254,0 0.2271,-0.1016 0.2271,-0.2271l0,-0.9496l0.931,-0.1861L9.0852,9.2928c0.1254,0 0.2271,-0.1016 0.2271,-0.2271 0,-0.1255 -0.1017,-0.2271 -0.2271,-0.2271l-0.9085,0c-0.015,0 -0.0298,0.0015 -0.0446,0.0044L7.0411,9.0612 5.95,8.843c-0.0148,-0.0029 -0.0296,-0.0044 -0.0446,-0.0044l-0.9085,0c-0.1254,0 -0.2271,0.1016 -0.2271,0.2271 0,0.1255 0.1017,0.2271 0.2271,0.2271l0.886,0L6.8139,9.4789l0,0.9496c0,0.1255 0.1017,0.2271 0.2271,0.2271z" fill="#000000" fill-opacity="1.0"/>
  <path d="m9.3123,10.8827l-1.1356,0c-0.015,0 -0.0298,0.0015 -0.0446,0.0044L7.0411,11.1054 5.95,10.8872c-0.0148,-0.0029 -0.0296,-0.0044 -0.0446,-0.0044l-1.1356,0c-0.1254,0 -0.2271,0.1016 -0.2271,0.2271 0,0.1255 0.1017,0.2271 0.2271,0.2271l1.1131,0L6.8139,11.5232l0,1.4037c0,0.1255 0.1017,0.2271 0.2271,0.2271 0.1254,0 0.2271,-0.1016 0.2271,-0.2271l0,-1.4038l0.931,-0.1861L9.3123,11.337c0.1254,0 0.2271,-0.1016 0.2271,-0.2271 0,-0.1255 -0.1017,-0.2271 -0.2271,-0.2271z" fill="#000000" fill-opacity="1.0"/>
  <path d="m7.7269,4.3406c0.0215,0.108 0.1165,0.1826 0.2225,0.1826 0.0148,0 0.0297,-0.0013 0.0448,-0.0044l2.2713,-0.4543c0.123,-0.0246 0.2027,-0.1442 0.1781,-0.2673 -0.0245,-0.1231 -0.1434,-0.2032 -0.2673,-0.1781l-2.2713,0.4543c-0.123,0.0246 -0.2027,0.1442 -0.1781,0.2673z" fill="#000000" fill-opacity="1.0"/>
  <path d="m3.6787,3.6191c-0.1239,-0.0253 -0.2427,0.055 -0.2673,0.1781 -0.0246,0.1231 0.0551,0.2426 0.1781,0.2673l2.2713,0.4543c0.0151,0.0031 0.03,0.0044 0.0448,0.0044 0.106,0 0.201,-0.0745 0.2225,-0.1826 0.0246,-0.1231 -0.0551,-0.2426 -0.1781,-0.2673z" fill="#000000" fill-opacity="1.0"/>
  <path d="m6.6792,2.9377c0.0691,0.1373 0.2077,0.2227 0.3619,0.2227 0.1542,0 0.2928,-0.0854 0.3618,-0.2225l0.9767,-1.939c0.0564,-0.112 0.0113,-0.2486 -0.1007,-0.3052 -0.1123,-0.0561 -0.2485,-0.0111 -0.305,0.1007L7.0411,2.6463 6.1083,0.7944c-0.0563,-0.1118 -0.1929,-0.1568 -0.305,-0.1007 -0.112,0.0566 -0.1572,0.1932 -0.1007,0.3052z" fill="#000000" fill-opacity="1.0"/>
  <path d="M7.0411,13.6083m-0.2271,0a0.2271,0.2271 0,1 1,0.4543 0a0.2271,0.2271 0,1 1,-0.4543 0" fill="#000000" fill-opacity="1.0"/>
</svg>