<?xml version="1.0" encoding="UTF-8" standalone="no"?><svg xmlns:android="http://schemas.android.com/apk/res/android" height="24" width="24" xmlns="http://www.w3.org/2000/svg">
  <path d="M16.5342,3.8036 L16.5534,3.1207L7.6495,3.1207l0.0178,0.6817C7.7003,5.0628 6.0479,6.6206 5.2629,8.435L0.767,8.435l0,5.3143l3.0722,0c-0.1204,2.141 0.8538,4.5238 1.2652,7.4012L5.1859,21.7207l13.8365,0l0.0815,-0.5703C19.5157,18.2697 20.4891,15.8896 20.3682,13.7493L23.4413,13.7493L23.4413,8.435L18.9392,8.435C18.1516,6.62 16.4988,5.0664 16.5342,3.8036ZM8.9334,4.4493l6.3337,0c0.2791,1.3735 1.4482,2.6202 2.1927,3.9857l-10.7185,0c0.7425,-1.366 1.9112,-2.6134 2.1921,-3.9857zM5.4628,16.4064l0.2264,0c2.1554,0 4.1867,0.806 5.7506,2.2747L11.4399,20.3921L6.3304,20.3921c-0.2517,-1.488 -0.6084,-2.7811 -0.8676,-3.9857zM17.8779,20.3921L12.7685,20.3921L12.7685,18.6811C14.3324,17.2124 16.3637,16.4064 18.5191,16.4064l0.2259,0c-0.2571,1.1956 -0.6167,2.5052 -0.8671,3.9857zM18.9819,15.0778L18.519,15.0778C16.1192,15.0778 13.8461,15.9616 12.1041,17.4895 10.3635,15.9628 8.0908,15.0778 5.6893,15.0778L5.2258,15.0778C5.1658,14.6106 5.1418,14.1677 5.1711,13.7493L19.0362,13.7493c0.0295,0.4183 0.0055,0.8613 -0.0543,1.3286zM22.1127,12.4207l-1.3729,0l0,-1.3286l-1.3286,0l0,1.3286l-1.3286,0l0,-1.3286l-1.3286,0l0,1.3286l-1.3286,0l0,-1.3286l-1.3286,0l0,1.3286l-1.3286,0l0,-1.3286l-1.3286,0l0,1.3286L10.1113,12.4207L10.1113,11.0921L8.7827,11.0921l0,1.3286l-1.3286,0l0,-1.3286l-1.3286,0l0,1.3286L4.797,12.4207L4.797,11.0921L3.4685,11.0921l0,1.3286L2.0956,12.4207l0,-2.6571l20.0171,0z" fill="#000000" fill-opacity="1.0"/>
</svg>