<?xml version="1.0" encoding="UTF-8" standalone="no"?><svg xmlns:android="http://schemas.android.com/apk/res/android" height="24" width="24" xmlns="http://www.w3.org/2000/svg">
  <path d="m3.2684,1.6621c0.0348,0 0.0697,0.0031 0.1044,0.0095l9.6214,1.7604c1.3826,0.253 2.3849,1.4513 2.3849,2.8569 0,3.4418 0,9.2228 0,10.2289 0.0369,1.187 0.3694,1.3939 0.6815,1.7652 1.8538,2.205 4.1962,2.2717 4.7867,2.4451 0.1882,0.0553 0.3351,0.2027 0.3894,0.3912 0.0542,0.1885 0.0084,0.3916 -0.1217,0.5384l-0.0014,0.0015c-0.3277,0.37 -0.7977,0.5806 -1.2898,0.5806 -0.023,0 -0.0462,-0.0005 -0.0693,-0.0014l-3.3912,-0.1364c-0.0928,-0.0037 -0.1856,-0.0056 -0.2784,-0.0056 -0.3553,0 -0.7102,0.0273 -1.0616,0.0819l-0.415,0.0644c-0.1046,0.0162 -0.209,0.0241 -0.3128,0.0241 -0.6499,0 -1.2689,-0.3115 -1.6551,-0.8498 -0.4478,-0.6242 -0.434,-1.4142 -0.1515,-2.1287 0.0743,-0.188 0.2178,-0.7786 0.2178,-0.7786 0.3635,-1.2995 0.3067,-2.6807 -0.1621,-3.9461l-0.3785,-0.9531C11.3847,11.6425 11.1116,9.5145 11.3647,7.4217l-8.0589,0.5229c-0.0126,0.0008 -0.0251,0.0012 -0.0376,0.0012 -0.1469,0 -0.2889,-0.0558 -0.3968,-0.1569 -0.1171,-0.1097 -0.1834,-0.263 -0.1834,-0.4234L2.6879,2.2424c0,-0.1722 0.0765,-0.3355 0.2087,-0.4457C3.0019,1.709 3.1336,1.6621 3.2684,1.6621m4.5684,2.5564c0.237,0 0.4456,-0.1722 0.484,-0.4136 0.0425,-0.2676 -0.14,-0.5189 -0.4075,-0.5615l-3.405,-0.541c-0.0262,-0.0042 -0.0523,-0.0062 -0.0779,-0.0062 -0.237,0 -0.4451,0.1724 -0.4835,0.4137 -0.0425,0.2676 0.14,0.5189 0.4075,0.5615l3.405,0.541c0.026,0.0041 0.0519,0.0061 0.0775,0.0061m1.3091,0.1419c0.2709,0 0.4906,-0.2197 0.4906,-0.4906 0,-0.2709 -0.2197,-0.4906 -0.4906,-0.4906 -0.2709,0 -0.4906,0.2197 -0.4906,0.4906 0,0.271 0.2197,0.4906 0.4906,0.4906M3.2684,0.5714C2.8781,0.5714 2.4982,0.7091 2.1984,0.9589 1.8165,1.2773 1.5974,1.7451 1.5974,2.2424L1.5974,7.3654c0,0.4602 0.1925,0.9045 0.5283,1.2192 0.3108,0.2913 0.7166,0.4518 1.1426,0.4518 0.0359,0 0.0723,-0.0012 0.1083,-0.0035l6.811,-0.4419c-0.046,1.8483 0.2814,3.7002 0.9649,5.4219l0.3735,0.9409c0.3877,1.0533 0.4328,2.1811 0.1304,3.2622l-0.0051,0.0181 -0.0044,0.0182c-0.0635,0.2615 -0.1443,0.5584 -0.1733,0.6378 -0.4483,1.1364 -0.346,2.289 0.2807,3.1626 0.5861,0.817 1.5361,1.3047 2.5413,1.3047 0.1601,0 0.3217,-0.0124 0.4801,-0.0371l0.415,-0.0644c0.2949,-0.0458 0.5958,-0.069 0.8942,-0.069 0.0779,0 0.1568,0.0016 0.2345,0.0047l3.3912,0.1364c0.0378,0.0015 0.0755,0.0023 0.1131,0.0023 0.8048,0 1.5725,-0.3456 2.1062,-0.9481 0.3811,-0.4302 0.5131,-1.0147 0.3547,-1.5649 -0.1583,-0.5498 -0.5808,-0.9744 -1.13,-1.1358 -0.1506,-0.0442 -0.3139,-0.0736 -0.5207,-0.1108 -0.8506,-0.153 -2.4337,-0.4377 -3.7386,-1.9897 -0.0503,-0.0598 -0.0982,-0.1132 -0.1405,-0.1603 -0.181,-0.2017 -0.2644,-0.2946 -0.2852,-0.9204L16.4696,6.2888c0,-1.9293 -1.3791,-3.582 -3.2793,-3.9297L3.5691,0.5987C3.4701,0.5806 3.3689,0.5714 3.2684,0.5714Z" fill="#000000" fill-opacity="1.0"/>
</svg>