<?xml version="1.0" encoding="UTF-8" standalone="no"?><svg xmlns:android="http://schemas.android.com/apk/res/android" height="24" width="24" xmlns="http://www.w3.org/2000/svg">
  <path d="M21.0326,2.3738L16.9436,2.3738C14.2594,-0.204 10.0192,-0.204 7.335,2.3738L3.246,2.3738C1.7519,2.3755 0.541,3.5864 0.5393,5.0805l0,15.8533c0.0017,1.4941 1.2125,2.705 2.7067,2.7067l17.7866,0c1.4941,-0.0017 2.705,-1.2125 2.7067,-2.7067L23.7393,5.0805C23.7376,3.5864 22.5268,2.3755 21.0326,2.3738ZM7.7714,3.0183C8.9312,1.8625 10.5019,1.2136 12.1393,1.2138c1.6452,-0.0042 3.2234,0.6512 4.3817,1.8197l-0.0004,0c2.4118,2.4202 2.405,6.3374 -0.0152,8.7492 -2.4202,2.4118 -6.3374,2.405 -8.7492,-0.0152 -2.4118,-2.4202 -2.405,-6.3374 0.0152,-8.7492zM22.966,20.9338c-0.0013,1.0672 -0.8661,1.9321 -1.9333,1.9333L3.246,22.8671C2.1788,22.8659 1.3139,22.001 1.3127,20.9338L1.3127,5.0805C1.3139,4.0133 2.1788,3.1484 3.246,3.1472l3.3833,0c-0.0708,0.0916 -0.1346,0.1875 -0.2007,0.2823 -0.0352,0.0503 -0.0731,0.099 -0.1067,0.15 -0.116,0.1755 -0.2239,0.355 -0.3225,0.539 -0.0182,0.0333 -0.0325,0.0684 -0.0499,0.1021 -0.0773,0.1527 -0.1547,0.3093 -0.2196,0.464 -0.0282,0.0665 -0.0526,0.1349 -0.0773,0.2022 -0.0499,0.1288 -0.0974,0.2583 -0.1392,0.3901 -0.0244,0.0773 -0.0464,0.152 -0.0681,0.2285 -0.0358,0.1289 -0.0682,0.2589 -0.0971,0.3901 -0.017,0.0773 -0.034,0.1547 -0.0483,0.232 -0.0263,0.1415 -0.046,0.2842 -0.063,0.428 -0.0085,0.0677 -0.0189,0.1346 -0.0251,0.203 -0.0193,0.2119 -0.0313,0.4253 -0.0313,0.6407 0.0009,3.8439 3.1177,6.9593 6.9616,6.9584 3.8426,-0.0009 6.9575,-3.1158 6.9584,-6.9584 0,-0.2154 -0.012,-0.4288 -0.0313,-0.6403 -0.0062,-0.0688 -0.017,-0.1361 -0.0251,-0.2042 -0.0174,-0.1435 -0.0387,-0.2861 -0.063,-0.4273 -0.0143,-0.0773 -0.0313,-0.1547 -0.0483,-0.232 -0.0286,-0.1312 -0.0609,-0.261 -0.0971,-0.3894 -0.0217,-0.0773 -0.0437,-0.1547 -0.0681,-0.2297 -0.0418,-0.1315 -0.0889,-0.2606 -0.1388,-0.389 -0.0263,-0.0677 -0.0507,-0.1365 -0.0773,-0.2034 -0.0665,-0.1547 -0.14,-0.3093 -0.2181,-0.4617 -0.0182,-0.0348 -0.0329,-0.0711 -0.0514,-0.1059 -0.0986,-0.1837 -0.2065,-0.3627 -0.3221,-0.5375 -0.0344,-0.0526 -0.0731,-0.1021 -0.109,-0.1547 -0.0657,-0.094 -0.1288,-0.1887 -0.1987,-0.2796L21.0326,3.1448c1.0672,0.0013 1.9321,0.8661 1.9333,1.9333z" fill="#000000" fill-opacity="1.0"/>
  <path d="m240,-424c-61.856,0 -112,50.144 -112,112 0.066,61.828 50.172,111.934 112,112 61.856,0 112,-50.144 112,-112C352,-373.856 301.856,-424 240,-424ZM313.24,-250.072 L296.568,-266.744 285.256,-255.432 301.928,-238.76C286.725,-225.865 267.868,-218.049 248,-216.408L248,-240h-16v23.592c-19.868,-1.641 -38.725,-9.457 -53.928,-22.352l16.672,-16.672 -11.312,-11.312 -16.672,16.672C153.865,-265.275 146.049,-284.132 144.408,-304L168,-304v-16h-23.592c1.641,-19.868 9.457,-38.725 22.352,-53.928L183.432,-357.256 194.744,-368.568 178.072,-385.24C193.275,-398.135 212.132,-405.95 232,-407.591v23.592h16L248,-407.591c19.868,1.641 38.725,9.457 53.928,22.352l-16.672,16.672 11.312,11.312 16.672,-16.672c12.895,15.203 20.711,34.06 22.352,53.928L312,-319.999v16h23.592c-1.641,19.867 -9.457,38.724 -22.352,53.927z" fill="#000000" fill-opacity="1.0"/>
  <path d="M248,-334.528L248,-367.999h-16v33.472c-12.473,4.393 -19.023,18.066 -14.629,30.539 3.38,9.596 12.455,16.009 22.629,15.989 13.224,0.025 23.964,-10.675 23.989,-23.899 0.02,-10.174 -6.393,-19.25 -15.989,-22.63zM240,-303.999c-4.418,0 -8,-3.582 -8,-8 0,-4.418 3.582,-8 8,-8 4.418,0 8,3.582 8,8 0,4.417 -3.582,8 -8,8z" fill="#000000" fill-opacity="1.0"/>
  <path d="m240,-136c-4.418,0 -8,3.582 -8,8v96c0,4.418 3.582,8 8,8 4.418,0 8,-3.582 8,-8v-96c0,-4.418 -3.582,-8 -8,-8z" fill="#000000" fill-opacity="1.0"/>
  <path d="m180,-152c-6.627,0 -12,5.373 -12,12 0,6.627 5.373,12 12,12 6.627,0 12,-5.373 12,-12 0,-6.627 -5.372,-12 -12,-12zM180,-136c-2.209,0 -4,-1.791 -4,-4 0,-2.209 1.791,-4 4,-4 2.209,0 4,1.791 4,4 0,2.209 -1.791,4 -4,4z" fill="#000000" fill-opacity="1.0"/>
  <path d="m180,-96c-6.627,0 -12,5.373 -12,12 0,6.627 5.373,12 12,12 6.627,0 12,-5.373 12,-12 0,-6.627 -5.372,-12 -12,-12zM180,-80c-2.209,0 -4,-1.791 -4,-4 0,-2.209 1.791,-4 4,-4 2.209,0 4,1.791 4,4 0,2.209 -1.791,4 -4,4z" fill="#000000" fill-opacity="1.0"/>
  <path d="m180,-40c-6.627,0 -12,5.373 -12,12 0,6.627 5.373,12 12,12 6.627,0 12,-5.373 12,-12 0,-6.627 -5.372,-12 -12,-12zM180,-24c-2.209,0 -4,-1.791 -4,-4 0,-2.209 1.791,-4 4,-4 2.209,0 4,1.791 4,4 0,2.209 -1.791,4 -4,4z" fill="#000000" fill-opacity="1.0"/>
  <path d="m140,-184c-6.627,0 -12,5.373 -12,12 0,6.627 5.373,12 12,12 6.627,0 12,-5.373 12,-12 0,-6.627 -5.372,-12 -12,-12zM140,-168c-2.209,0 -4,-1.791 -4,-4 0,-2.209 1.791,-4 4,-4 2.209,0 4,1.791 4,4 0,2.209 -1.791,4 -4,4z" fill="#000000" fill-opacity="1.0"/>
  <path d="m140,-128c-6.627,0 -12,5.373 -12,12 0,6.627 5.373,12 12,12 6.627,0 12,-5.373 12,-12 0,-6.627 -5.372,-12 -12,-12zM140,-112c-2.209,0 -4,-1.791 -4,-4 0,-2.209 1.791,-4 4,-4 2.209,0 4,1.791 4,4 0,2.209 -1.791,4 -4,4z" fill="#000000" fill-opacity="1.0"/>
  <path d="m140,-72c-6.627,0 -12,5.373 -12,12 0,6.627 5.373,12 12,12 6.627,0 12,-5.373 12,-12 0,-6.627 -5.372,-12 -12,-12zM140,-56c-2.209,0 -4,-1.791 -4,-4 0,-2.209 1.791,-4 4,-4 2.209,0 4,1.791 4,4 0,2.209 -1.791,4 -4,4z" fill="#000000" fill-opacity="1.0"/>
  <path d="m100,-152c-6.627,0 -12,5.373 -12,12 0,6.627 5.373,12 12,12 6.627,0 12,-5.373 12,-12 0,-6.627 -5.372,-12 -12,-12zM100,-136c-2.209,0 -4,-1.791 -4,-4 0,-2.209 1.791,-4 4,-4 2.209,0 4,1.791 4,4 0,2.209 -1.791,4 -4,4z" fill="#000000" fill-opacity="1.0"/>
  <path d="m100,-96c-6.627,0 -12,5.373 -12,12 0,6.627 5.373,12 12,12 6.627,0 12,-5.373 12,-12 0,-6.627 -5.372,-12 -12,-12zM100,-80c-2.209,0 -4,-1.791 -4,-4 0,-2.209 1.791,-4 4,-4 2.209,0 4,1.791 4,4 0,2.209 -1.791,4 -4,4z" fill="#000000" fill-opacity="1.0"/>
  <path d="m100,-40c-6.627,0 -12,5.373 -12,12 0,6.627 5.373,12 12,12 6.627,0 12,-5.373 12,-12 0,-6.627 -5.372,-12 -12,-12zM100,-24c-2.209,0 -4,-1.791 -4,-4 0,-2.209 1.791,-4 4,-4 2.209,0 4,1.791 4,4 0,2.209 -1.791,4 -4,4z" fill="#000000" fill-opacity="1.0"/>
  <path d="m60,-184c-6.627,0 -12,5.373 -12,12 0,6.627 5.373,12 12,12 6.627,0 12,-5.373 12,-12 0,-6.627 -5.372,-12 -12,-12zM60,-168c-2.209,0 -4,-1.791 -4,-4 0,-2.209 1.791,-4 4,-4 2.209,0 4,1.791 4,4 0,2.209 -1.791,4 -4,4z" fill="#000000" fill-opacity="1.0"/>
  <path d="m60,-239.999c-6.627,0 -12,5.373 -12,12 0,6.627 5.373,12 12,12 6.627,0 12,-5.373 12,-12 0,-6.627 -5.372,-12 -12,-12zM60,-223.999c-2.209,0 -4,-1.791 -4,-4 0,-2.209 1.791,-4 4,-4 2.209,0 4,1.791 4,4 0,2.209 -1.791,4 -4,4z" fill="#000000" fill-opacity="1.0"/>
  <path d="m60,-128c-6.627,0 -12,5.373 -12,12 0,6.627 5.373,12 12,12 6.627,0 12,-5.373 12,-12 0,-6.627 -5.372,-12 -12,-12zM60,-112c-2.209,0 -4,-1.791 -4,-4 0,-2.209 1.791,-4 4,-4 2.209,0 4,1.791 4,4 0,2.209 -1.791,4 -4,4z" fill="#000000" fill-opacity="1.0"/>
  <path d="m60,-72c-6.627,0 -12,5.373 -12,12 0,6.627 5.373,12 12,12 6.627,0 12,-5.373 12,-12 0,-6.627 -5.372,-12 -12,-12zM60,-56c-2.209,0 -4,-1.791 -4,-4 0,-2.209 1.791,-4 4,-4 2.209,0 4,1.791 4,4 0,2.209 -1.791,4 -4,4z" fill="#000000" fill-opacity="1.0"/>
  <path d="m100,-207.999c-6.627,0 -12,5.373 -12,12 0,6.627 5.373,12 12,12 6.627,0 12,-5.373 12,-12 0,-6.628 -5.372,-12 -12,-12zM100,-192c-2.209,0 -4,-1.791 -4,-4 0,-2.209 1.791,-4 4,-4 2.209,0 4,1.791 4,4 0,2.209 -1.791,4 -4,4z" fill="#000000" fill-opacity="1.0"/>
  <path d="m300,-152c-6.627,0 -12,5.373 -12,12 0,6.627 5.373,12 12,12 6.627,0 12,-5.373 12,-12 0,-6.627 -5.372,-12 -12,-12zM300,-136c-2.209,0 -4,-1.791 -4,-4 0,-2.209 1.791,-4 4,-4 2.209,0 4,1.791 4,4 0,2.209 -1.791,4 -4,4z" fill="#000000" fill-opacity="1.0"/>
  <path d="m300,-96c-6.627,0 -12,5.373 -12,12 0,6.627 5.373,12 12,12 6.627,0 12,-5.373 12,-12 0,-6.627 -5.372,-12 -12,-12zM300,-80c-2.209,0 -4,-1.791 -4,-4 0,-2.209 1.791,-4 4,-4 2.209,0 4,1.791 4,4 0,2.209 -1.791,4 -4,4z" fill="#000000" fill-opacity="1.0"/>
  <path d="m300,-40c-6.627,0 -12,5.373 -12,12 0,6.627 5.373,12 12,12 6.627,0 12,-5.373 12,-12 0,-6.627 -5.372,-12 -12,-12zM300,-24c-2.209,0 -4,-1.791 -4,-4 0,-2.209 1.791,-4 4,-4 2.209,0 4,1.791 4,4 0,2.209 -1.791,4 -4,4z" fill="#000000" fill-opacity="1.0"/>
  <path d="m340,-184c-6.627,0 -12,5.373 -12,12 0,6.627 5.373,12 12,12 6.627,0 12,-5.373 12,-12 0,-6.627 -5.372,-12 -12,-12zM340,-168c-2.209,0 -4,-1.791 -4,-4 0,-2.209 1.791,-4 4,-4 2.209,0 4,1.791 4,4 0,2.209 -1.791,4 -4,4z" fill="#000000" fill-opacity="1.0"/>
  <path d="m340,-128c-6.627,0 -12,5.373 -12,12 0,6.627 5.373,12 12,12 6.627,0 12,-5.373 12,-12 0,-6.627 -5.372,-12 -12,-12zM340,-112c-2.209,0 -4,-1.791 -4,-4 0,-2.209 1.791,-4 4,-4 2.209,0 4,1.791 4,4 0,2.209 -1.791,4 -4,4z" fill="#000000" fill-opacity="1.0"/>
  <path d="m340,-72c-6.627,0 -12,5.373 -12,12 0,6.627 5.373,12 12,12 6.627,0 12,-5.373 12,-12 0,-6.627 -5.372,-12 -12,-12zM340,-56c-2.209,0 -4,-1.791 -4,-4 0,-2.209 1.791,-4 4,-4 2.209,0 4,1.791 4,4 0,2.209 -1.791,4 -4,4z" fill="#000000" fill-opacity="1.0"/>
  <path d="m380,-152c-6.627,0 -12,5.373 -12,12 0,6.627 5.373,12 12,12 6.627,0 12,-5.373 12,-12 0,-6.627 -5.372,-12 -12,-12zM380,-136c-2.209,0 -4,-1.791 -4,-4 0,-2.209 1.791,-4 4,-4 2.209,0 4,1.791 4,4 0,2.209 -1.791,4 -4,4z" fill="#000000" fill-opacity="1.0"/>
  <path d="m380,-96c-6.627,0 -12,5.373 -12,12 0,6.627 5.373,12 12,12 6.627,0 12,-5.373 12,-12 0,-6.627 -5.372,-12 -12,-12zM380,-80c-2.209,0 -4,-1.791 -4,-4 0,-2.209 1.791,-4 4,-4 2.209,0 4,1.791 4,4 0,2.209 -1.791,4 -4,4z" fill="#000000" fill-opacity="1.0"/>
  <path d="m380,-40c-6.627,0 -12,5.373 -12,12 0,6.627 5.373,12 12,12 6.627,0 12,-5.373 12,-12 0,-6.627 -5.372,-12 -12,-12zM380,-24c-2.209,0 -4,-1.791 -4,-4 0,-2.209 1.791,-4 4,-4 2.209,0 4,1.791 4,4 0,2.209 -1.791,4 -4,4z" fill="#000000" fill-opacity="1.0"/>
  <path d="m420,-184c-6.627,0 -12,5.373 -12,12 0,6.627 5.373,12 12,12 6.627,0 12,-5.373 12,-12 0,-6.627 -5.372,-12 -12,-12zM420,-168c-2.209,0 -4,-1.791 -4,-4 0,-2.209 1.791,-4 4,-4 2.209,0 4,1.791 4,4 0,2.209 -1.791,4 -4,4z" fill="#000000" fill-opacity="1.0"/>
  <path d="m420,-239.999c-6.627,0 -12,5.373 -12,12 0,6.627 5.373,12 12,12 6.627,0 12,-5.373 12,-12 0,-6.627 -5.372,-12 -12,-12zM420,-223.999c-2.209,0 -4,-1.791 -4,-4 0,-2.209 1.791,-4 4,-4 2.209,0 4,1.791 4,4 0,2.209 -1.791,4 -4,4z" fill="#000000" fill-opacity="1.0"/>
  <path d="m420,-128c-6.627,0 -12,5.373 -12,12 0,6.627 5.373,12 12,12 6.627,0 12,-5.373 12,-12 0,-6.627 -5.372,-12 -12,-12zM420,-112c-2.209,0 -4,-1.791 -4,-4 0,-2.209 1.791,-4 4,-4 2.209,0 4,1.791 4,4 0,2.209 -1.791,4 -4,4z" fill="#000000" fill-opacity="1.0"/>
  <path d="m420,-72c-6.627,0 -12,5.373 -12,12 0,6.627 5.373,12 12,12 6.627,0 12,-5.373 12,-12 0,-6.627 -5.372,-12 -12,-12zM420,-56c-2.209,0 -4,-1.791 -4,-4 0,-2.209 1.791,-4 4,-4 2.209,0 4,1.791 4,4 0,2.209 -1.791,4 -4,4z" fill="#000000" fill-opacity="1.0"/>
  <path d="m380,-207.999c-6.627,0 -12,5.373 -12,12 0,6.627 5.373,12 12,12 6.627,0 12,-5.373 12,-12 0,-6.628 -5.372,-12 -12,-12zM380,-192c-2.209,0 -4,-1.791 -4,-4 0,-2.209 1.791,-4 4,-4 2.209,0 4,1.791 4,4 0,2.209 -1.791,4 -4,4z" fill="#000000" fill-opacity="1.0"/>
</svg>