<?xml version="1.0" encoding="UTF-8" standalone="no"?><svg xmlns:android="http://schemas.android.com/apk/res/android" height="2.8125" width="2.15625" xmlns="http://www.w3.org/2000/svg">
  <path d="m0.3045,0.94876c-0.04098,0.12362 -0.15487,0.42262 -0.15317,0.41798 -0.14789,0.40793 -0.09756,0.93926 0.17354,1.38845 0.01681,0.02752 0.04673,0.04431 0.07897,0.04433l1.41446,0c0.03224,-0.00004 0.06215,-0.01682 0.07897,-0.04433 0.27991,-0.46369 0.31933,-1.00465 0.16795,-1.40483C2.01177,1.2099 1.96043,1.07784 1.91766,0.94871 2.08207,0.89204 2.16641,0.82046 2.16641,0.7352 2.16641,0.63948 2.05729,0.55858 1.85053,0.50026 1.85984,0.38867 1.89017,0.27984 1.93991,0.17951 1.95404,0.15108 1.95247,0.11736 1.93576,0.09037 1.91905,0.06337 1.88957,0.04693 1.85782,0.0469L0.36434,0.0469C0.33258,0.04692 0.30309,0.06335 0.28637,0.09035 0.26965,0.11735 0.26807,0.15107 0.2822,0.17951 0.33197,0.27982 0.3623,0.38863 0.37159,0.50022 0.16473,0.55858 0.05561,0.63944 0.05561,0.7352c0,0.08526 0.08434,0.15689 0.24889,0.21356zM2.00539,1.45934c0.01581,0.05251 0.02823,0.10599 0.03717,0.1601 -0.09246,0.05286 -0.21108,0.11164 -0.35365,0.1751C1.46634,1.89029 1.26865,2.03574 1.11101,2.21974 0.95338,2.03575 0.75571,1.8903 0.53316,1.79455 0.39059,1.73095 0.27202,1.67235 0.17951,1.61949 0.18847,1.5654 0.20088,1.51194 0.21668,1.45944 0.35558,1.56406 0.6281,1.69883 1.11101,1.69883 1.59393,1.69883 1.86659,1.56401 2.00539,1.45934ZM0.40344,2.70774C0.22236,2.41089 0.13968,2.06441 0.16721,1.71778c0.08971,0.04942 0.19965,0.10325 0.32864,0.1606 0.22243,0.09483 0.41799,0.24316 0.56927,0.4318l0,0.39756zM1.81831,2.70774L1.1569,2.70774l0,-0.39756c0.1513,-0.18863 0.34687,-0.33694 0.56932,-0.43175 0.12899,-0.0574 0.23893,-0.11128 0.32869,-0.1606 0.02751,0.34667 -0.05531,0.69315 -0.23659,0.98992zM2.07464,0.7352c0,0.03001 -0.05006,0.07934 -0.18483,0.12619 -0.02637,-0.08633 -0.04065,-0.17589 -0.04245,-0.26614C2.00333,0.64233 2.07464,0.6979 2.07464,0.7352ZM0.36416,0.13867l1.4938,0c-0.11444,0.23337 -0.13446,0.50189 -0.05589,0.74965 -0.08005,0.02057 -0.16126,0.03631 -0.2432,0.04713l0.13362,-0.12027c0.01824,-0.01708 0.01945,-0.04562 0.00273,-0.06419C1.6785,0.73242 1.64999,0.73064 1.6311,0.747l-0.22943,0.20649c-0.01154,0.01112 -0.01693,0.02717 -0.01443,0.043 0.00249,0.01583 0.01256,0.02945 0.02696,0.03648C1.65248,1.24767 1.6377,1.23996 1.66166,1.23996c0.01899,-0.00001 0.03602,-0.01171 0.04283,-0.02944 0.00681,-0.01773 0.00198,-0.03782 -0.01213,-0.05054l-0.145,-0.1305c0.09529,-0.01163 0.1897,-0.02955 0.28262,-0.05364 0.043,0.12995 0.09228,0.25697 0.14358,0.39164 -0.39201,0.32121 -1.33306,0.32121 -1.72498,0 0.05084,-0.13362 0.10049,-0.26133 0.14358,-0.39164 0.0929,0.02405 0.18728,0.04196 0.28253,0.0536l-0.145,0.1305C0.51552,1.17264 0.51068,1.19275 0.51749,1.21051 0.5243,1.22826 0.54136,1.23997 0.56037,1.23996c0.02446,0 0.01478,0.00252 0.26013,-0.21828 0.00966,-0.0087 0.01518,-0.02109 0.01518,-0.03409 0,-0.013 -0.00552,-0.02539 -0.01518,-0.03409l-0.22943,-0.20649C0.57217,0.73064 0.54366,0.73242 0.52694,0.75099 0.51022,0.76956 0.51144,0.7981 0.52967,0.81518l0.13362,0.12027C0.58135,0.92468 0.50013,0.90894 0.42009,0.88833 0.49874,0.64057 0.47871,0.37201 0.36416,0.13867ZM0.3748,0.59534C0.373,0.68559 0.3587,0.77516 0.33231,0.86148 0.1975,0.81459 0.14739,0.76521 0.14739,0.7352 0.14739,0.6979 0.21874,0.64233 0.3748,0.59511Z" fill="#000000" fill-opacity="1.0"/>
  <path d="m1.11101,1.19407c0.08208,-0.0069 0.14339,-0.07844 0.13766,-0.1606 0.00573,-0.08217 -0.05558,-0.1537 -0.13766,-0.1606 -0.08208,0.0069 -0.14339,0.07844 -0.13766,0.1606 -0.00573,0.08217 0.05558,0.1537 0.13766,0.1606zM1.11101,0.96464c0.02446,0 0.04589,0.03212 0.04589,0.06883 0,0.03671 -0.02143,0.06883 -0.04589,0.06883 -0.02446,0 -0.04589,-0.03212 -0.04589,-0.06883 0,-0.03671 0.02143,-0.06883 0.04589,-0.06883z" fill="#000000" fill-opacity="1.0"/>
</svg>